<svg width="204" height="59" viewBox="0 0 204 59" fill="none" xmlns="http://www.w3.org/2000/svg">
<path fill-rule="evenodd" clip-rule="evenodd" d="M28.0789 2.09551C25.8555 3.39907 24.4621 5.13848 24.0481 7.12723C23.6019 9.27456 22.3154 10.7407 19.6645 12.124C17.6018 13.2002 15.2134 14.4928 14.3575 14.9965C13.5015 15.4991 9.99978 16.7289 6.57589 17.7282C0.511466 19.4986 0.342346 19.6432 0.0269336 23.3165C-0.316492 27.3149 2.68511 33.3151 5.5591 34.3753C6.70351 34.7982 7.09466 34.1828 7.09466 31.9597C7.09466 25.5945 16.5778 25.7989 18.9257 32.215C19.6572 34.2147 19.4476 35.4973 18.0584 37.535C16.4979 39.8249 15.7083 40.1391 12.6974 39.6693C9.45611 39.1647 9.25482 39.2774 10.2426 41.0517C10.834 42.1139 11.7688 42.9836 12.3187 42.9836C12.8696 42.9836 13.3199 43.8114 13.3199 44.8237C13.3199 49.4306 20.5734 51.8272 24.1404 48.3983C26.3566 46.2679 26.1885 44.9783 23.6953 44.9783C21.2644 44.9783 20.8774 42.1977 23.19 41.3449C25.5297 40.4812 27.8455 42.8449 27.8455 46.0974C27.8455 49.8215 24.5254 52.9573 20.5827 52.9573C16.7469 52.9573 16.6297 54.171 20.204 56.8739C24.1809 59.881 30.9342 59.6715 34.9599 56.4151C40.4692 51.9589 41.4684 44.5654 37.4479 38.0117C35.9954 35.645 36.0618 35.6599 38.6141 38.293C42.0733 41.8615 42.8722 45.0322 41.5628 49.9911C40.213 55.1056 41.7413 55.2253 46.7609 50.4C55.0716 42.4111 53.7176 28.0231 44.0965 22.0987C39.8913 19.5085 41.8035 19.4148 46.2058 21.995C50.4919 24.5074 52.9976 28.2575 53.8193 33.3889L54.4781 37.4981L56.7016 33.0099C62.6373 21.0325 56.8001 9.59372 42.3773 4.93901C40.4869 4.32961 40.9092 4.25481 43.9274 4.66573C46.21 4.97691 49.169 5.90745 50.5023 6.73327C53.6844 8.70506 54.6441 7.65883 52.1354 4.95197C47.4135 -0.140586 34.5096 -1.67354 28.0789 2.09551ZM26.2892 18.0494C25.9364 18.5979 24.7422 19.0468 23.6341 19.0468C22.526 19.0468 21.6202 18.5979 21.6202 18.0494C21.6202 17.5008 22.8155 17.052 24.2753 17.052C25.7808 17.052 26.6533 17.4839 26.2892 18.0494Z" fill="white"/>
<path d="M70.992 24V7.2H74.208L84.12 19.296H82.56V7.2H86.4V24H83.208L73.272 11.904H74.832V24H70.992ZM98.5348 24.288C97.2068 24.288 95.9748 24.072 94.8388 23.64C93.7188 23.208 92.7428 22.6 91.9108 21.816C91.0948 21.032 90.4548 20.112 89.9908 19.056C89.5428 18 89.3188 16.848 89.3188 15.6C89.3188 14.352 89.5428 13.2 89.9908 12.144C90.4548 11.088 91.1028 10.168 91.9348 9.384C92.7668 8.6 93.7428 7.992 94.8628 7.56C95.9828 7.128 97.1988 6.912 98.5108 6.912C99.8388 6.912 101.055 7.128 102.159 7.56C103.279 7.992 104.247 8.6 105.063 9.384C105.895 10.168 106.543 11.088 107.007 12.144C107.471 13.184 107.703 14.336 107.703 15.6C107.703 16.848 107.471 18.008 107.007 19.08C106.543 20.136 105.895 21.056 105.063 21.84C104.247 22.608 103.279 23.208 102.159 23.64C101.055 24.072 99.8468 24.288 98.5348 24.288ZM98.5108 20.976C99.2628 20.976 99.9508 20.848 100.575 20.592C101.215 20.336 101.775 19.968 102.255 19.488C102.735 19.008 103.103 18.44 103.359 17.784C103.631 17.128 103.767 16.4 103.767 15.6C103.767 14.8 103.631 14.072 103.359 13.416C103.103 12.76 102.735 12.192 102.255 11.712C101.791 11.232 101.239 10.864 100.599 10.608C99.9588 10.352 99.2628 10.224 98.5108 10.224C97.7588 10.224 97.0628 10.352 96.4228 10.608C95.7988 10.864 95.2468 11.232 94.7668 11.712C94.2868 12.192 93.9108 12.76 93.6388 13.416C93.3828 14.072 93.2548 14.8 93.2548 15.6C93.2548 16.384 93.3828 17.112 93.6388 17.784C93.9108 18.44 94.2788 19.008 94.7428 19.488C95.2228 19.968 95.7828 20.336 96.4228 20.592C97.0628 20.848 97.7588 20.976 98.5108 20.976ZM110.625 24V7.2H117.897C119.401 7.2 120.697 7.448 121.785 7.944C122.873 8.424 123.713 9.12 124.305 10.032C124.897 10.944 125.193 12.032 125.193 13.296C125.193 14.544 124.897 15.624 124.305 16.536C123.713 17.432 122.873 18.12 121.785 18.6C120.697 19.08 119.401 19.32 117.897 19.32H112.785L114.513 17.616V24H110.625ZM121.305 24L117.105 17.904H121.257L125.505 24H121.305ZM114.513 18.048L112.785 16.224H117.681C118.881 16.224 119.777 15.968 120.369 15.456C120.961 14.928 121.257 14.208 121.257 13.296C121.257 12.368 120.961 11.648 120.369 11.136C119.777 10.624 118.881 10.368 117.681 10.368H112.785L114.513 8.52V18.048ZM131.519 24V10.368H126.143V7.2H140.783V10.368H135.407V24H131.519ZM154.395 7.2H158.283V24H154.395V7.2ZM146.763 24H142.875V7.2H146.763V24ZM154.683 17.112H146.475V13.824H154.683V17.112ZM68.784 53L76.272 36.2H80.112L87.624 53H83.544L77.4 38.168H78.936L72.768 53H68.784ZM72.528 49.4L73.56 46.448H82.2L83.256 49.4H72.528ZM97.1726 53.288C95.8766 53.288 94.6686 53.08 93.5486 52.664C92.4446 52.232 91.4846 51.624 90.6686 50.84C89.8526 50.056 89.2126 49.136 88.7486 48.08C88.3006 47.024 88.0766 45.864 88.0766 44.6C88.0766 43.336 88.3006 42.176 88.7486 41.12C89.2126 40.064 89.8526 39.144 90.6686 38.36C91.5006 37.576 92.4686 36.976 93.5726 36.56C94.6766 36.128 95.8846 35.912 97.1966 35.912C98.6526 35.912 99.9646 36.168 101.133 36.68C102.317 37.176 103.309 37.912 104.109 38.888L101.613 41.192C101.037 40.536 100.397 40.048 99.6926 39.728C98.9886 39.392 98.2206 39.224 97.3886 39.224C96.6046 39.224 95.8846 39.352 95.2286 39.608C94.5726 39.864 94.0046 40.232 93.5246 40.712C93.0446 41.192 92.6686 41.76 92.3966 42.416C92.1406 43.072 92.0126 43.8 92.0126 44.6C92.0126 45.4 92.1406 46.128 92.3966 46.784C92.6686 47.44 93.0446 48.008 93.5246 48.488C94.0046 48.968 94.5726 49.336 95.2286 49.592C95.8846 49.848 96.6046 49.976 97.3886 49.976C98.2206 49.976 98.9886 49.816 99.6926 49.496C100.397 49.16 101.037 48.656 101.613 47.984L104.109 50.288C103.309 51.264 102.317 52.008 101.133 52.52C99.9646 53.032 98.6446 53.288 97.1726 53.288ZM104.221 53L111.71 36.2H115.55L123.062 53H118.982L112.838 38.168H114.374L108.206 53H104.221ZM107.965 49.4L108.998 46.448H117.638L118.694 49.4H107.965ZM124.805 53V36.2H132.437C134.261 36.2 135.869 36.552 137.261 37.256C138.653 37.944 139.741 38.912 140.525 40.16C141.309 41.408 141.701 42.888 141.701 44.6C141.701 46.296 141.309 47.776 140.525 49.04C139.741 50.288 138.653 51.264 137.261 51.968C135.869 52.656 134.261 53 132.437 53H124.805ZM128.693 49.808H132.245C133.365 49.808 134.333 49.6 135.148 49.184C135.981 48.752 136.621 48.144 137.069 47.36C137.533 46.576 137.765 45.656 137.765 44.6C137.765 43.528 137.533 42.608 137.069 41.84C136.621 41.056 135.981 40.456 135.148 40.04C134.333 39.608 133.365 39.392 132.245 39.392H128.693V49.808ZM148.209 42.968H156.297V45.992H148.209V42.968ZM148.497 49.88H157.641V53H144.633V36.2H157.329V39.32H148.497V49.88ZM160.734 53V36.2H163.95L171.102 48.056H169.398L176.43 36.2H179.622L179.67 53H176.022L175.998 41.792H176.67L171.054 51.224H169.302L163.566 41.792H164.382V53H160.734ZM187.832 53V46.136L188.72 48.488L181.328 36.2H185.456L191.12 45.632H188.744L194.432 36.2H198.248L190.856 48.488L191.72 46.136V53H187.832Z" fill="white"/>
</svg>
