<svg width="209" height="59" viewBox="0 0 209 59" fill="none" xmlns="http://www.w3.org/2000/svg">
<path fill-rule="evenodd" clip-rule="evenodd" d="M28.0789 2.09551C25.8555 3.39907 24.4621 5.13848 24.0481 7.12723C23.6019 9.27456 22.3154 10.7407 19.6645 12.124C17.6018 13.2002 15.2134 14.4928 14.3575 14.9965C13.5015 15.4991 9.99978 16.7289 6.57589 17.7282C0.511466 19.4986 0.342346 19.6432 0.0269336 23.3165C-0.316492 27.3149 2.68511 33.3151 5.5591 34.3753C6.70351 34.7982 7.09466 34.1828 7.09466 31.9597C7.09466 25.5945 16.5778 25.7989 18.9257 32.215C19.6572 34.2147 19.4476 35.4973 18.0584 37.535C16.4979 39.8249 15.7083 40.1391 12.6974 39.6693C9.45611 39.1647 9.25482 39.2774 10.2426 41.0517C10.834 42.1139 11.7688 42.9836 12.3187 42.9836C12.8696 42.9836 13.3199 43.8114 13.3199 44.8237C13.3199 49.4306 20.5734 51.8272 24.1404 48.3983C26.3566 46.2679 26.1885 44.9783 23.6953 44.9783C21.2644 44.9783 20.8774 42.1977 23.19 41.3449C25.5297 40.4812 27.8455 42.8449 27.8455 46.0974C27.8455 49.8215 24.5254 52.9573 20.5827 52.9573C16.7469 52.9573 16.6297 54.171 20.204 56.8739C24.1809 59.881 30.9342 59.6715 34.9599 56.4151C40.4692 51.9589 41.4684 44.5654 37.4479 38.0117C35.9954 35.645 36.0618 35.6599 38.6141 38.293C42.0733 41.8615 42.8722 45.0322 41.5628 49.9911C40.213 55.1056 41.7413 55.2253 46.7609 50.4C55.0716 42.4111 53.7176 28.0231 44.0965 22.0987C39.8913 19.5085 41.8035 19.4148 46.2058 21.995C50.4919 24.5074 52.9976 28.2575 53.8193 33.3889L54.4781 37.4981L56.7016 33.0099C62.6373 21.0325 56.8001 9.59372 42.3773 4.93901C40.4869 4.32961 40.9092 4.25481 43.9274 4.66573C46.21 4.97691 49.169 5.90745 50.5023 6.73327C53.6844 8.70506 54.6441 7.65883 52.1354 4.95197C47.4135 -0.140586 34.5096 -1.67354 28.0789 2.09551ZM26.2892 18.0494C25.9364 18.5979 24.7422 19.0468 23.6341 19.0468C22.526 19.0468 21.6202 18.5979 21.6202 18.0494C21.6202 17.5008 22.8155 17.052 24.2753 17.052C25.7808 17.052 26.6533 17.4839 26.2892 18.0494Z" fill="white"/>
<path d="M75.992 38V21.2H79.208L89.12 33.296H87.56V21.2H91.4V38H88.208L78.272 25.904H79.832V38H75.992ZM103.535 38.288C102.207 38.288 100.975 38.072 99.8388 37.64C98.7188 37.208 97.7428 36.6 96.9108 35.816C96.0948 35.032 95.4548 34.112 94.9908 33.056C94.5428 32 94.3188 30.848 94.3188 29.6C94.3188 28.352 94.5428 27.2 94.9908 26.144C95.4548 25.088 96.1028 24.168 96.9348 23.384C97.7668 22.6 98.7428 21.992 99.8628 21.56C100.983 21.128 102.199 20.912 103.511 20.912C104.839 20.912 106.055 21.128 107.159 21.56C108.279 21.992 109.247 22.6 110.063 23.384C110.895 24.168 111.543 25.088 112.007 26.144C112.471 27.184 112.703 28.336 112.703 29.6C112.703 30.848 112.471 32.008 112.007 33.08C111.543 34.136 110.895 35.056 110.063 35.84C109.247 36.608 108.279 37.208 107.159 37.64C106.055 38.072 104.847 38.288 103.535 38.288ZM103.511 34.976C104.263 34.976 104.951 34.848 105.575 34.592C106.215 34.336 106.775 33.968 107.255 33.488C107.735 33.008 108.103 32.44 108.359 31.784C108.631 31.128 108.767 30.4 108.767 29.6C108.767 28.8 108.631 28.072 108.359 27.416C108.103 26.76 107.735 26.192 107.255 25.712C106.791 25.232 106.239 24.864 105.599 24.608C104.959 24.352 104.263 24.224 103.511 24.224C102.759 24.224 102.063 24.352 101.423 24.608C100.799 24.864 100.247 25.232 99.7668 25.712C99.2868 26.192 98.9108 26.76 98.6388 27.416C98.3828 28.072 98.2548 28.8 98.2548 29.6C98.2548 30.384 98.3828 31.112 98.6388 31.784C98.9108 32.44 99.2788 33.008 99.7428 33.488C100.223 33.968 100.783 34.336 101.423 34.592C102.063 34.848 102.759 34.976 103.511 34.976ZM115.625 38V21.2H122.897C124.401 21.2 125.697 21.448 126.785 21.944C127.873 22.424 128.713 23.12 129.305 24.032C129.897 24.944 130.193 26.032 130.193 27.296C130.193 28.544 129.897 29.624 129.305 30.536C128.713 31.432 127.873 32.12 126.785 32.6C125.697 33.08 124.401 33.32 122.897 33.32H117.785L119.513 31.616V38H115.625ZM126.305 38L122.105 31.904H126.257L130.505 38H126.305ZM119.513 32.048L117.785 30.224H122.681C123.881 30.224 124.777 29.968 125.369 29.456C125.961 28.928 126.257 28.208 126.257 27.296C126.257 26.368 125.961 25.648 125.369 25.136C124.777 24.624 123.881 24.368 122.681 24.368H117.785L119.513 22.52V32.048ZM136.519 38V24.368H131.143V21.2H145.783V24.368H140.407V38H136.519ZM159.395 21.2H163.283V38H159.395V21.2ZM151.763 38H147.875V21.2H151.763V38ZM159.683 31.112H151.475V27.824H159.683V31.112Z" fill="white"/>
</svg>
